<svg height="30" viewBox="0 0 512.00007 512" width="30" xmlns="http://www.w3.org/2000/svg"><path d="m415.660156 187.734375-161.792968 8.53125-157.527344-8.53125c.105468-2.414063.417968-4.8125.941406-7.167969l33.449219-145.152344c3.355469-15.695312 17.230469-26.902343 33.28125-26.878906h183.976562c16.050781-.023437 29.925781 11.183594 33.28125 26.878906l33.449219 145.152344c.523438 2.355469.835938 4.753906.941406 7.167969zm0 0" fill="#607d8b"/><path d="m187.734375 295.511719h136.53125v66.042969h-136.53125zm0 0" fill="#fec108"/><path d="m247.464844 217.601562-8.53125 89.597657h-85.332032c-10.34375-.019531-19.660156-6.242188-23.640624-15.785157l-25.769532-69.375.34375-.171874 134.398438-12.800782c4.707031.015625 8.519531 3.828125 8.53125 8.535156zm0 0" fill="#9e9e9e"/><path d="m407.464844 221.867188.34375.171874-25.769532 69.375c-3.980468 9.542969-13.296874 15.765626-23.640624 15.785157h-85.332032l-12.800781-89.597657c.015625-4.707031 3.828125-8.519531 8.535156-8.535156zm0 0" fill="#9e9e9e"/><path d="m162.132812 102.398438h187.734376c9.425781 0 17.066406 7.644531 17.066406 17.066406v51.203125c0 9.425781-7.640625 17.066406-17.066406 17.066406h-187.734376c-9.425781 0-17.066406-7.640625-17.066406-17.066406v-51.203125c0-9.421875 7.640625-17.066406 17.066406-17.066406zm0 0" fill="#fec108"/><path d="m187.734375 102.398438h136.53125c9.425781 0 17.066406 7.644531 17.066406 17.066406v51.203125c0 9.425781-7.640625 17.066406-17.066406 17.066406h-136.53125c-9.425781 0-17.066406-7.640625-17.066406-17.066406v-51.203125c0-9.421875 7.640625-17.066406 17.066406-17.066406zm0 0" fill="#ffdc00"/><path d="m409.601562 503.464844h93.867188l-.003906-7.59375c.015625-10.925782-1.300782-21.816406-3.921875-32.425782l-7.9375-32.171874c-9.203125-33.554688-40.046875-56.558594-74.835938-55.808594h-321.539062c-34.789063-.75-65.632813 22.253906-74.835938 55.808594l-7.9375 32.171874c-2.621093 10.609376-3.9375 21.5-3.921875 32.425782v7.59375zm0 0" fill="#9e9e9e"/><path d="m435.199219 503.464844h-93.867188c-.007812-28.746094 3.867188-57.363282 11.519531-85.074219l60.417969-21.164063zm0 0" fill="#607d8b"/><path d="m352.851562 418.390625c-7.652343 27.710937-11.527343 56.328125-11.519531 85.074219h-170.664062c.007812-28.746094-3.867188-57.363282-11.519531-85.074219l85.585937 29.949219c7.292969 2.5625 15.238281 2.5625 22.53125 0zm0 0" fill="#9e9e9e"/><path d="m170.667969 503.464844h-93.867188l21.929688-106.238282 60.417969 21.164063c7.652343 27.710937 11.527343 56.328125 11.519531 85.074219zm0 0" fill="#607d8b"/><path d="m413.269531 397.226562-60.417969 21.164063-85.585937 29.949219c-7.292969 2.5625-15.238281 2.5625-22.53125 0l-85.585937-29.949219-60.417969-21.164063 6.996093-33.707031c2.945313-8.820312 11.558594-14.46875 20.824219-13.652343h258.898438c9.285156-.816407 17.921875 4.824218 20.90625 13.652343zm0 0" fill="#9e9e9e"/><path d="m273.066406 25.601562c0 9.425782-7.640625 17.066407-17.066406 17.066407s-17.066406-7.640625-17.066406-17.066407c0-9.425781 7.640625-17.066406 17.066406-17.066406s17.066406 7.640625 17.066406 17.066406zm0 0" fill="#95a5a5"/><path d="m411.902344 211.113281-4.007813 10.925781h-.085937l-.34375-.171874h-125.863282c-4.707031.011718-8.519531 3.824218-8.535156 8.53125v76.800781h-34.132812v-76.800781c-.015625-4.707032-3.828125-8.519532-8.535156-8.53125h-125.863282l-.34375.171874h-.085937l-4.007813-10.925781c-3.144531-7.367187-4.433594-15.394531-3.757812-23.378906h319.320312c.675782 7.984375-.613281 16.011719-3.757812 23.378906zm0 0" fill="#607d8b"/><path d="m233.648438 128.757812c-8.109376-2.980468-16.625-4.707031-25.257813-5.121093-11.601563-.875-23.214844 1.601562-33.449219 7.136719 1.167969-14.933594 35.789063-17.886719 52.710938-14.046876 2.683594.335938 5.019531 1.988282 6.226562 4.40625 1.207032 2.421876 1.121094 5.285157-.230468 7.625zm0 0"/><path d="m230.398438 155.144531c0-10.101562-7.640626-18.289062-17.066407-18.289062s-17.066406 8.1875-17.066406 18.289062c0 10.105469 7.640625 18.292969 17.066406 18.292969s17.066407-8.1875 17.066407-18.292969zm0 0"/><path d="m218.117188 139.273438c-4.40625-1.675782-9.332032.539062-11.007813 4.941406-1.675781 4.40625.535156 9.335937 4.941406 11.011718 4.40625 1.675782 9.332031-.539062 11.007813-4.941406 1.675781-4.40625-.535156-9.335937-4.941406-11.011718zm0 0" fill="#fff"/><path d="m278.351562 128.757812c8.109376-2.980468 16.625-4.707031 25.257813-5.121093 11.601563-.875 23.214844 1.601562 33.449219 7.136719-1.167969-14.933594-35.789063-17.886719-52.710938-14.046876-2.683594.335938-5.019531 1.988282-6.226562 4.40625-1.207032 2.421876-1.121094 5.285157.230468 7.625zm0 0"/><path d="m315.734375 155.144531c0-10.101562-7.640625-18.289062-17.066406-18.289062s-17.066407 8.1875-17.066407 18.289062c0 10.105469 7.640626 18.292969 17.066407 18.292969s17.066406-8.1875 17.066406-18.292969zm0 0"/><path d="m304.890625 144.214844c-1.675781-4.402344-6.605469-6.617188-11.007813-4.941406-4.40625 1.675781-6.617187 6.605468-4.941406 11.007812 1.671875 4.40625 6.601563 6.621094 11.007813 4.945312 4.40625-1.675781 6.617187-6.605468 4.941406-11.011718zm0 0" fill="#fff"/><path d="m435.199219 512h-358.398438c-2.566406 0-4.996093-1.152344-6.617187-3.144531-1.621094-1.988281-2.261719-4.601563-1.742188-7.113281l28.910156-139.921876c3.722657-12.84375 15.886719-21.367187 29.230469-20.488281h258.894531c13.363282-.882812 25.535157 7.671875 29.230469 20.542969l28.855469 139.867188c.519531 2.511718-.121094 5.128906-1.742188 7.117187-1.621093 1.988281-4.054687 3.140625-6.621093 3.140625zm-347.925781-17.066406h337.453124l-26.742187-129.664063c-2.257813-4.742187-7.296875-7.511719-12.507813-6.871093h-258.894531c-5.199219-.632813-10.226562 2.109374-12.507812 6.828124zm0 0"/><path d="m324.265625 358.398438h-136.53125c-4.714844 0-8.535156-3.820313-8.535156-8.53125v-42.667969c0-4.710938 3.820312-8.53125 8.535156-8.53125h136.53125c4.714844 0 8.535156 3.820312 8.535156 8.53125v42.667969c0 4.710937-3.820312 8.53125-8.535156 8.53125zm-128-17.066407h119.46875v-25.597656h-119.46875zm0 0"/><path d="m102.398438 512h-93.863282c-4.714844 0-8.535156-3.820312-8.535156-8.535156v-7.59375c-.0078125-11.617188 1.394531-23.191406 4.175781-34.472656l7.9375-32.164063c10.019531-37.449219 44.359375-63.1875 83.117188-62.300781h8.023437c4.710938 0 8.53125 3.820312 8.53125 8.53125 0 4.714844-3.820312 8.535156-8.53125 8.535156h-8.023437c-30.898438-.871094-58.390625 19.496094-66.558594 49.308594l-7.9375 32.179687c-2.371094 9.636719-3.605469 19.519531-3.667969 29.445313h85.332032c4.714843 0 8.535156 3.820312 8.535156 8.53125 0 4.714844-3.820313 8.535156-8.535156 8.535156zm0 0"/><path d="m503.464844 512h-93.863282c-4.714843 0-8.535156-3.820312-8.535156-8.535156 0-4.710938 3.820313-8.53125 8.535156-8.53125h85.332032c-.066406-9.921875-1.300782-19.804688-3.675782-29.441406l-7.9375-32.179688c-8.164062-29.8125-35.652343-50.183594-66.550781-49.3125h-7.9375c-4.710937 0-8.535156-3.820312-8.535156-8.535156 0-4.710938 3.824219-8.53125 8.535156-8.53125h7.9375c38.761719-.890625 73.105469 24.851562 83.125 62.308594l7.933594 32.160156c2.78125 11.28125 4.179687 22.855468 4.171875 34.46875v7.59375c0 4.714844-3.820312 8.535156-8.535156 8.535156zm0 0"/><path d="m358.398438 315.734375h-204.796876c-13.789062.023437-26.226562-8.269531-31.511718-21.003906l-30.035156-80.632813c-4.632813-11.191406-5.714844-23.535156-3.109376-35.363281l33.433594-145.230469c4.371094-19.519531 21.660156-33.4218748 41.664063-33.503906h183.914062c20.039063.09375 37.347657 14.042969 41.691407 33.605469l33.382812 145.027343c2.640625 11.96875 1.523438 24.457032-3.207031 35.761719l-29.792969 80.03125c-5.226562 12.875-17.734375 21.300781-31.632812 21.308594zm-194.355469-298.667969c-12.023438.054688-22.40625 8.425782-25.007813 20.164063l-33.433594 145.226562c-1.84375 8.5-1.03125 17.359375 2.324219 25.382813l30.035157 80.628906c2.695312 6.226562 8.851562 10.242188 15.640624 10.199219h204.796876c6.898437.011719 13.121093-4.136719 15.761718-10.503907l29.789063-80.027343c3.453125-8.136719 4.300781-17.140625 2.425781-25.777344l-33.382812-145.03125c-2.574219-11.777344-12.976563-20.199219-25.035157-20.261719zm0 0"/><path d="m349.867188 196.265625h-187.734376c-14.132812-.015625-25.582031-11.46875-25.597656-25.597656v-51.203125c.015625-14.128906 11.464844-25.582032 25.597656-25.597656h187.734376c14.132812.015624 25.585937 11.46875 25.597656 25.597656v51.203125c-.011719 14.128906-11.464844 25.582031-25.597656 25.597656zm-187.734376-85.332031c-4.710937.003906-8.527343 3.820312-8.53125 8.53125v51.203125c.003907 4.710937 3.820313 8.527343 8.53125 8.53125h187.734376c4.710937-.003907 8.527343-3.820313 8.53125-8.53125v-51.203125c-.003907-4.710938-3.820313-8.527344-8.53125-8.53125zm0 0"/><path d="m273.066406 315.734375h-34.132812c-4.714844 0-8.535156-3.820313-8.535156-8.535156v-76.800781h-125.863282c-4.714844 0-8.535156-3.820313-8.535156-8.53125 0-4.714844 3.820312-8.535157 8.535156-8.535157h125.863282c9.421874.011719 17.058593 7.648438 17.066406 17.066407v68.269531h17.070312v-68.269531c.007813-9.417969 7.644532-17.054688 17.066406-17.066407h125.863282c4.714844 0 8.535156 3.820313 8.535156 8.535157 0 4.710937-3.820312 8.53125-8.535156 8.53125h-125.863282v76.800781c0 4.714843-3.820312 8.535156-8.535156 8.535156zm0 0"/><path d="m415.660156 196.265625h-319.320312c-4.710938 0-8.53125-3.820313-8.53125-8.53125 0-4.714844 3.820312-8.535156 8.53125-8.535156h319.320312c4.710938 0 8.53125 3.820312 8.53125 8.535156 0 4.710937-3.820312 8.53125-8.53125 8.53125zm0 0"/><path d="m256 51.199219c-14.136719 0-25.601562-11.460938-25.601562-25.597657 0-14.140624 11.464843-25.601562 25.601562-25.601562s25.601562 11.460938 25.601562 25.601562c-.015624 14.128907-11.46875 25.582032-25.601562 25.597657zm0-34.132813c-4.710938 0-8.535156 3.820313-8.535156 8.535156 0 4.710938 3.824218 8.53125 8.535156 8.53125s8.535156-3.820312 8.535156-8.53125c-.007812-4.710937-3.824218-8.53125-8.535156-8.535156zm0 0"/><path d="m213.332031 256c0 4.710938-3.820312 8.535156-8.53125 8.535156-4.714843 0-8.535156-3.824218-8.535156-8.535156s3.820313-8.535156 8.535156-8.535156c4.710938 0 8.53125 3.824218 8.53125 8.535156zm0 0"/><path d="m187.734375 273.066406c0 4.714844-3.820313 8.535156-8.535156 8.535156-4.710938 0-8.53125-3.820312-8.53125-8.535156 0-4.710937 3.820312-8.53125 8.53125-8.53125 4.714843 0 8.535156 3.820313 8.535156 8.53125zm0 0"/><path d="m162.132812 256c0 4.710938-3.820312 8.535156-8.53125 8.535156-4.714843 0-8.535156-3.824218-8.535156-8.535156s3.820313-8.535156 8.535156-8.535156c4.710938 0 8.53125 3.824218 8.53125 8.535156zm0 0"/><path d="m366.933594 256c0 4.710938-3.820313 8.535156-8.535156 8.535156-4.710938 0-8.53125-3.824218-8.53125-8.535156s3.820312-8.535156 8.53125-8.535156c4.714843 0 8.535156 3.824218 8.535156 8.535156zm0 0"/><path d="m341.332031 273.066406c0 4.714844-3.820312 8.535156-8.53125 8.535156-4.714843 0-8.535156-3.820312-8.535156-8.535156 0-4.710937 3.820313-8.53125 8.535156-8.53125 4.710938 0 8.53125 3.820313 8.53125 8.53125zm0 0"/><path d="m315.734375 256c0 4.710938-3.820313 8.535156-8.535156 8.535156-4.710938 0-8.53125-3.824218-8.53125-8.535156s3.820312-8.535156 8.53125-8.535156c4.714843 0 8.535156 3.824218 8.535156 8.535156zm0 0"/><path d="m256.007812 458.796875c-4.804687 0-9.574218-.8125-14.105468-2.40625l-145.988282-51.109375c-4.375-1.609375-6.648437-6.429688-5.113281-10.828125 1.539063-4.398437 6.324219-6.75 10.746094-5.28125l146 51.113281c5.464844 1.925782 11.421875 1.925782 16.882813 0l146.023437-51.113281c4.421875-1.46875 9.207031.882813 10.746094 5.28125 1.535156 4.398437-.738281 9.21875-5.113281 10.828125l-146.007813 51.113281c-4.519531 1.59375-9.277344 2.402344-14.070313 2.402344zm0 0"/><path d="m256 426.667969c-4.710938 0-8.535156-3.820313-8.535156-8.535157v-8.53125c0-4.714843 3.824218-8.535156 8.535156-8.535156s8.535156 3.820313 8.535156 8.535156v8.53125c0 4.714844-3.824218 8.535157-8.535156 8.535157zm0 0"/><path d="m221.867188 418.132812c-4.714844 0-8.535157-3.820312-8.535157-8.53125v-8.535156c0-4.710937 3.820313-8.53125 8.535157-8.53125 4.710937 0 8.53125 3.820313 8.53125 8.53125v8.535156c0 4.710938-3.820313 8.53125-8.53125 8.53125zm0 0"/><path d="m187.734375 409.601562c-4.714844 0-8.535156-3.820312-8.535156-8.535156v-8.53125c0-4.714844 3.820312-8.535156 8.535156-8.535156 4.710937 0 8.53125 3.820312 8.53125 8.535156v8.53125c0 4.714844-3.820313 8.535156-8.53125 8.535156zm0 0"/><path d="m290.132812 418.132812c-4.710937 0-8.53125-3.820312-8.53125-8.53125v-8.535156c0-4.710937 3.820313-8.53125 8.53125-8.53125 4.714844 0 8.535157 3.820313 8.535157 8.53125v8.535156c0 4.710938-3.820313 8.53125-8.535157 8.53125zm0 0"/><path d="m324.265625 409.601562c-4.710937 0-8.53125-3.820312-8.53125-8.535156v-8.53125c0-4.714844 3.820313-8.535156 8.53125-8.535156 4.714844 0 8.535156 3.820312 8.535156 8.535156v8.53125c0 4.714844-3.820312 8.535156-8.535156 8.535156zm0 0"/><path d="m170.667969 512c-4.714844 0-8.535157-3.820312-8.535157-8.535156-.011718-27.960938-3.78125-55.796875-11.199218-82.761719-1.28125-4.535156 1.363281-9.253906 5.898437-10.53125 4.539063-1.28125 9.253907 1.359375 10.535157 5.898437 7.890624 28.460938 11.871093 57.863282 11.832031 87.394532 0 2.265625-.898438 4.433594-2.5 6.035156-1.597657 1.601562-3.769531 2.5-6.03125 2.5zm0 0"/><path d="m341.332031 512c-4.710937 0-8.53125-3.820312-8.53125-8.535156-.039062-29.53125 3.941407-58.933594 11.832031-87.394532 1.28125-4.539062 5.996094-7.179687 10.535157-5.898437 4.535156 1.277344 7.179687 5.996094 5.898437 10.53125-7.417968 26.964844-11.1875 54.800781-11.199218 82.761719 0 4.714844-3.820313 8.535156-8.535157 8.535156zm0 0"/><path d="m230.398438 110.933594c-4.710938 0-8.53125-3.820313-8.53125-8.535156v-34.132813c0-4.710937 3.820312-8.53125 8.53125-8.53125 4.714843 0 8.535156 3.820313 8.535156 8.53125v34.132813c0 4.714843-3.820313 8.535156-8.535156 8.535156zm0 0"/><path d="m281.601562 110.933594c-4.714843 0-8.535156-3.820313-8.535156-8.535156v-34.132813c0-4.710937 3.820313-8.53125 8.535156-8.53125 4.710938 0 8.53125 3.820313 8.53125 8.53125v34.132813c0 4.714843-3.820312 8.535156-8.53125 8.535156zm0 0"/></svg>